<svg xmlns="http://www.w3.org/2000/svg" viewBox="0 0 512 512" role="img" aria-label="Energy Relay app icon">
  <defs>
    <linearGradient id="bg" x1="0" y1="0" x2="0" y2="1">
      <stop offset="0" stop-color="#142846"/>
      <stop offset="0.58" stop-color="#0b1528"/>
      <stop offset="1" stop-color="#050914"/>
    </linearGradient>
    <linearGradient id="wallL" x1="0" y1="0" x2="1" y2="0">
      <stop offset="0" stop-color="#111a29"/>
      <stop offset="1" stop-color="#31455d"/>
    </linearGradient>
    <linearGradient id="wallR" x1="1" y1="0" x2="0" y2="0">
      <stop offset="0" stop-color="#111a29"/>
      <stop offset="1" stop-color="#31455d"/>
    </linearGradient>
    <radialGradient id="orbCore" cx="38%" cy="30%" r="70%">
      <stop offset="0" stop-color="#ffffff"/>
      <stop offset="0.18" stop-color="#c6f5ff"/>
      <stop offset="0.48" stop-color="#58caff"/>
      <stop offset="0.76" stop-color="#2386ff"/>
      <stop offset="1" stop-color="#0b3fb5"/>
    </radialGradient>
    <radialGradient id="orbGlow">
      <stop offset="0" stop-color="#9be9ff" stop-opacity=".95"/>
      <stop offset=".44" stop-color="#39bfff" stop-opacity=".52"/>
      <stop offset="1" stop-color="#2386ff" stop-opacity="0"/>
    </radialGradient>
    <filter id="cyanGlow" x="-80%" y="-80%" width="260%" height="260%">
      <feGaussianBlur stdDeviation="12"/>
    </filter>
    <filter id="redGlow" x="-80%" y="-80%" width="260%" height="260%">
      <feGaussianBlur stdDeviation="8"/>
    </filter>
    <clipPath id="roundClip">
      <rect width="512" height="512" rx="104"/>
    </clipPath>
  </defs>

  <g clip-path="url(#roundClip)">
    <rect width="512" height="512" fill="url(#bg)"/>

    <g fill="#dbeaff" opacity=".58">
      <circle cx="139" cy="73" r="2.1"/>
      <circle cx="233" cy="49" r="1.5"/>
      <circle cx="331" cy="92" r="2.3"/>
      <circle cx="390" cy="57" r="1.4"/>
      <circle cx="282" cy="139" r="1.8"/>
      <circle cx="177" cy="166" r="1.2"/>
      <circle cx="363" cy="174" r="1.7"/>
      <circle cx="221" cy="235" r="1.4"/>
      <circle cx="318" cy="262" r="1.5"/>
      <circle cx="402" cy="309" r="2"/>
      <circle cx="154" cy="322" r="1.4"/>
      <circle cx="282" cy="397" r="1.5"/>
    </g>

    <path d="M0 0h92v512H0z" fill="url(#wallL)"/>
    <path d="M420 0h92v512h-92z" fill="url(#wallR)"/>
    <path d="M84 0h8v512h-8z" fill="#48d3ff" opacity=".8"/>
    <path d="M420 0h8v512h-8z" fill="#48d3ff" opacity=".8"/>

    <g stroke="#9ab2c9" stroke-opacity=".14" stroke-width="2">
      <path d="M18 112h60M18 224h60M18 336h60M18 448h60"/>
      <path d="M434 112h60M434 224h60M434 336h60M434 448h60"/>
    </g>

    <g>
      <path d="M92 165H420" stroke="#ff3f61" stroke-width="20" stroke-opacity=".24" filter="url(#redGlow)"/>
      <path d="M92 165H420" stroke="#ff4c69" stroke-width="10"/>
      <path d="M92 165H420" stroke="#ffe7ec" stroke-width="3"/>
      <circle cx="92" cy="165" r="18" fill="#27394b" stroke="#ff7187" stroke-width="4"/>
      <circle cx="92" cy="165" r="7" fill="#ff4965"/>
      <circle cx="420" cy="165" r="13" fill="#202c3b" stroke="#758da4" stroke-width="3"/>
    </g>

    <g transform="translate(361 252)">
      <path d="M0-37 45 0 0 37-45 0Z" fill="#273544" stroke="#ff7e92" stroke-width="5"/>
      <circle r="12" fill="#ff4f6b"/>
      <circle r="4.5" fill="#ffe1a1"/>
      <path d="M-58 0h16M42 0h16" stroke="#8bdfff" stroke-width="4" stroke-linecap="round" opacity=".74"/>
    </g>

    <g opacity=".78">
      <path d="M147 460C174 418 191 391 220 360" fill="none" stroke="#4dcfff" stroke-width="34" stroke-linecap="round" filter="url(#cyanGlow)" opacity=".42"/>
      <path d="M144 463C174 418 191 390 222 358" fill="none" stroke="#6fdcff" stroke-width="12" stroke-linecap="round" opacity=".5"/>
      <path d="M151 456C180 414 198 389 225 361" fill="none" stroke="#e0f9ff" stroke-width="3" stroke-linecap="round" opacity=".85"/>
    </g>

    <circle cx="260" cy="331" r="118" fill="url(#orbGlow)" filter="url(#cyanGlow)" opacity=".92"/>
    <circle cx="260" cy="331" r="76" fill="url(#orbCore)" stroke="#a9ecff" stroke-width="5"/>
    <circle cx="260" cy="331" r="62" fill="none" stroke="#dbf7ff" stroke-width="3" stroke-opacity=".68"/>
    <path d="M205 319c24-40 81-50 115-17M208 354c29 32 84 39 117 5" fill="none" stroke="#effcff" stroke-width="5" stroke-linecap="round" opacity=".76"/>
    <path d="M228 268c12 18 19 34 21 50m54-48c-15 20-23 38-25 57" fill="none" stroke="#54cfff" stroke-width="7" stroke-linecap="round" opacity=".72"/>
    <circle cx="232" cy="300" r="16" fill="#ffffff" opacity=".92"/>

    <g fill="none" stroke="#81ddff" stroke-linecap="round" opacity=".9">
      <path d="M194 376c-18 6-29 13-42 27" stroke-width="5"/>
      <path d="M183 354c-25 1-41 7-59 18" stroke-width="3"/>
      <path d="M203 396c-12 10-20 21-27 35" stroke-width="4"/>
    </g>

    <rect x="150" y="478" width="220" height="10" rx="5" fill="#62ddff" opacity=".52"/>
  </g>

  <rect x="2" y="2" width="508" height="508" rx="102" fill="none" stroke="#78ddff" stroke-opacity=".22" stroke-width="4"/>
</svg>
